<svg width="19.000000" height="19.000000" viewBox="0 0 19 19" fill="none" xmlns="http://www.w3.org/2000/svg" xmlns:xlink="http://www.w3.org/1999/xlink">
	<defs/>
	<path id="Vector" d="M4.5 9C2.01 9 0 6.98 0 4.5C0 2.01 2.01 0 4.5 0C6.98 0 9 2.01 9 4.5C9 6.98 6.98 9 4.5 9ZM4.5 19C2.01 19 0 16.98 0 14.5C0 12.01 2.01 10 4.5 10C6.98 10 9 12.01 9 14.5C9 16.98 6.98 19 4.5 19ZM14.5 9C12.01 9 10 6.98 10 4.5C10 2.01 12.01 0 14.5 0C16.98 0 19 2.01 19 4.5C19 6.98 16.98 9 14.5 9ZM14.5 19C12.01 19 10 16.98 10 14.5C10 12.01 12.01 10 14.5 10C16.98 10 19 12.01 19 14.5C19 16.98 16.98 19 14.5 19ZM4.5 7C5.88 7 7 5.88 7 4.5C7 3.11 5.88 2 4.5 2C3.11 2 2 3.11 2 4.5C2 5.88 3.11 7 4.5 7ZM4.5 17C5.88 17 7 15.88 7 14.5C7 13.11 5.88 12 4.5 12C3.11 12 2 13.11 2 14.5C2 15.88 3.11 17 4.5 17ZM14.5 7C15.88 7 17 5.88 17 4.5C17 3.11 15.88 2 14.5 2C13.11 2 12 3.11 12 4.5C12 5.88 13.11 7 14.5 7ZM14.5 17C15.88 17 17 15.88 17 14.5C17 13.11 15.88 12 14.5 12C13.11 12 12 13.11 12 14.5C12 15.88 13.11 17 14.5 17Z" fill="#FFFFFF" fill-opacity="1.000000" fill-rule="nonzero"/>
</svg>
