<svg width="20.313477" height="20.313721" viewBox="0 0 20.3135 20.3137" fill="none" xmlns="http://www.w3.org/2000/svg" xmlns:xlink="http://www.w3.org/1999/xlink">
	<desc>
			Created with Pixso.
	</desc>
	<defs/>
	<path id="Vector" d="M16.03 14.61L20.31 18.89L18.89 20.31L14.61 16.03C13.07 17.26 11.12 18 9 18C4.03 18 0 13.96 0 9C0 4.03 4.03 0 9 0C13.96 0 18 4.03 18 9C18 11.12 17.26 13.07 16.03 14.61ZM14.02 13.87C15.24 12.61 16 10.89 16 9C16 5.13 12.86 2 9 2C5.13 2 2 5.13 2 9C2 12.86 5.13 16 9 16C10.89 16 12.61 15.24 13.87 14.02L14.02 13.87Z" fill="#FFFFFF" fill-opacity="1.000000" fill-rule="nonzero"/>
</svg>
